<svg xmlns="http://www.w3.org/2000/svg" xmlns:xlink="http://www.w3.org/1999/xlink" version="1.1" x="0px" y="0px" viewBox="0 0 100 125" enable-background="new 0 0 100 100" xml:space="preserve"><metadata><?xpacket begin="&#65279;" id="W5M0MpCehiHzreSzNTczkc9d"?><x:xmpmeta xmlns:x="adobe:ns:meta/" x:xmptk="Adobe XMP Core 5.6-c011 79.156289, 2014/03/31-23:39:12        "/><?xpacket end="w"?></metadata><g><g><g><polygon points="79,42 21,42 21,38 50,27 79,38    "/></g></g><g><g><path d="M82.2,70.6L79,60.5V44H21v16.5l-3.2,10.1c-0.4,1.2,0.5,2.4,1.8,2.4h60.9C81.7,73,82.6,71.8,82.2,70.6z M30,65h-5V50.5     c0-1.4,1.1-2.5,2.5-2.5s2.5,1.1,2.5,2.5V65z M39,65h-5V50.5c0-1.4,1.1-2.5,2.5-2.5s2.5,1.1,2.5,2.5V65z M48,65h-5V50.5     c0-1.4,1.1-2.5,2.5-2.5s2.5,1.1,2.5,2.5V65z M57,65h-5V50.5c0-1.4,1.1-2.5,2.5-2.5s2.5,1.1,2.5,2.5V65z M66,65h-5V50.5     c0-1.4,1.1-2.5,2.5-2.5s2.5,1.1,2.5,2.5V65z M75,65h-5V50.5c0-1.4,1.1-2.5,2.5-2.5s2.5,1.1,2.5,2.5V65z"/></g></g></g><text x="0" y="115" fill="#000000" font-size="5px" font-weight="bold" font-family="'Helvetica Neue', Helvetica, Arial-Unicode, Arial, Sans-serif">Created by 23 icons</text><text x="0" y="120" fill="#000000" font-size="5px" font-weight="bold" font-family="'Helvetica Neue', Helvetica, Arial-Unicode, Arial, Sans-serif">from the Noun Project</text></svg>